<?xml version="1.0" encoding="UTF-8" standalone="no"?><!DOCTYPE svg PUBLIC "-//W3C//DTD SVG 1.1//EN" "http://www.w3.org/Graphics/SVG/1.1/DTD/svg11.dtd"><svg width="100%" height="100%" viewBox="0 0 547 133" version="1.1" xmlns="http://www.w3.org/2000/svg" xmlns:xlink="http://www.w3.org/1999/xlink" xml:space="preserve" xmlns:serif="http://www.serif.com/" style="fill-rule:evenodd;clip-rule:evenodd;stroke-linejoin:round;stroke-miterlimit:2;"><g><path d="M61.657,82.935l5.111,7.496c-3.029,1.741 -6.265,3.123 -9.71,4.145c-3.445,1.022 -7.098,1.533 -10.96,1.533c-5.603,0 -10.865,-1.06 -15.786,-3.18c-4.921,-2.12 -9.218,-5.016 -12.89,-8.688c-3.672,-3.672 -6.568,-7.969 -8.688,-12.89c-2.12,-4.921 -3.18,-10.183 -3.18,-15.786c0,-5.603 1.06,-10.884 3.18,-15.843c2.12,-4.959 5.016,-9.275 8.688,-12.947c3.672,-3.672 7.969,-6.587 12.89,-8.745c4.921,-2.158 10.183,-3.237 15.786,-3.237c3.861,0 7.515,0.492 10.96,1.476c3.445,0.984 6.72,2.385 9.824,4.202c-0.833,1.287 -1.704,2.555 -2.612,3.805c-0.909,1.249 -1.779,2.517 -2.612,3.805c-2.347,-1.363 -4.808,-2.423 -7.382,-3.18c-2.574,-0.757 -5.3,-1.136 -8.177,-1.136c-4.316,0 -8.347,0.833 -12.095,2.499c-3.748,1.666 -7.041,3.956 -9.881,6.871c-2.839,2.915 -5.073,6.303 -6.701,10.165c-1.628,3.861 -2.442,7.95 -2.442,12.266c0,4.316 0.814,8.404 2.442,12.266c1.628,3.861 3.861,7.212 6.701,10.051c2.839,2.839 6.133,5.092 9.881,6.757c3.748,1.666 7.78,2.499 12.095,2.499c5.603,0 10.789,-1.401 15.559,-4.202Z" style="fill:#00c8d1;fill-rule:nonzero;"/><path d="M78.692,73.85c0,-3.029 0.587,-5.906 1.76,-8.631c1.174,-2.726 2.782,-5.092 4.827,-7.098c2.044,-2.006 4.448,-3.596 7.212,-4.77c2.764,-1.174 5.735,-1.76 8.915,-1.76c3.18,0 6.171,0.587 8.972,1.76c2.801,1.174 5.224,2.764 7.269,4.77c2.044,2.006 3.653,4.372 4.827,7.098c1.174,2.726 1.76,5.603 1.76,8.631c0,3.104 -0.587,6 -1.76,8.688c-1.174,2.688 -2.782,5.054 -4.827,7.098c-2.044,2.044 -4.467,3.653 -7.269,4.827c-2.801,1.174 -5.792,1.76 -8.972,1.76c-3.18,0 -6.152,-0.587 -8.915,-1.76c-2.764,-1.174 -5.167,-2.782 -7.212,-4.827c-2.044,-2.044 -3.653,-4.41 -4.827,-7.098c-1.174,-2.688 -1.76,-5.584 -1.76,-8.688Zm9.426,0.114c0,1.817 0.341,3.521 1.022,5.111c0.681,1.59 1.609,2.972 2.782,4.145c1.174,1.174 2.555,2.101 4.145,2.782c1.59,0.681 3.294,1.022 5.111,1.022c1.817,0 3.521,-0.341 5.111,-1.022c1.59,-0.681 2.991,-1.609 4.202,-2.782c1.211,-1.174 2.158,-2.555 2.839,-4.145c0.681,-1.59 1.022,-3.294 1.022,-5.111c0,-1.817 -0.341,-3.521 -1.022,-5.111c-0.681,-1.59 -1.628,-2.991 -2.839,-4.202c-1.211,-1.211 -2.612,-2.158 -4.202,-2.839c-1.59,-0.681 -3.294,-1.022 -5.111,-1.022c-1.817,0 -3.521,0.341 -5.111,1.022c-1.59,0.681 -2.972,1.628 -4.145,2.839c-1.174,1.211 -2.101,2.612 -2.782,4.202c-0.681,1.59 -1.022,3.294 -1.022,5.111Z" style="fill-rule:nonzero;"/><path d="M137.862,52.612l8.291,0l0,1.022c0.151,1.817 0.284,3.464 0.397,4.94c0.114,1.476 0.246,3.123 0.397,4.94c1.59,-3.634 3.994,-6.492 7.212,-8.575c3.218,-2.082 6.985,-3.199 11.3,-3.35c4.164,0 7.515,1.041 10.051,3.123c2.536,2.082 4.032,4.827 4.486,8.234c1.666,-3.483 4.089,-6.209 7.269,-8.177c3.18,-1.969 6.852,-3.029 11.016,-3.18c4.467,0 7.988,1.174 10.562,3.521c2.574,2.347 3.937,5.414 4.089,9.199l0,30.891l-9.426,0l0,-26.575c-0.151,-2.044 -0.89,-3.805 -2.215,-5.281c-1.325,-1.476 -3.426,-2.29 -6.303,-2.442c-1.969,0 -3.842,0.341 -5.622,1.022c-1.779,0.681 -3.35,1.628 -4.713,2.839c-1.363,1.211 -2.461,2.65 -3.294,4.316c-0.833,1.666 -1.249,3.483 -1.249,5.451l0,20.67l-9.426,0l0,-26.575c-0.151,-2.044 -0.89,-3.805 -2.215,-5.281c-1.325,-1.476 -3.426,-2.29 -6.303,-2.442c-1.969,0 -3.842,0.341 -5.622,1.022c-1.779,0.681 -3.35,1.628 -4.713,2.839c-1.363,1.211 -2.461,2.65 -3.294,4.316c-0.833,1.666 -1.249,3.483 -1.249,5.451l0,20.67l-9.426,0l0,-42.589Z" style="fill-rule:nonzero;"/><path d="M228.264,52.612l8.291,0l0,1.022c0.151,1.817 0.284,3.464 0.397,4.94c0.114,1.476 0.246,3.123 0.397,4.94c1.59,-3.634 3.994,-6.492 7.212,-8.575c3.218,-2.082 6.985,-3.199 11.3,-3.35c4.164,0 7.515,1.041 10.051,3.123c2.536,2.082 4.032,4.827 4.486,8.234c1.666,-3.483 4.089,-6.209 7.269,-8.177c3.18,-1.969 6.852,-3.029 11.016,-3.18c4.467,0 7.988,1.174 10.562,3.521c2.574,2.347 3.937,5.414 4.089,9.199l0,30.891l-9.426,0l0,-26.575c-0.151,-2.044 -0.89,-3.805 -2.215,-5.281c-1.325,-1.476 -3.426,-2.29 -6.303,-2.442c-1.969,0 -3.842,0.341 -5.622,1.022c-1.779,0.681 -3.35,1.628 -4.713,2.839c-1.363,1.211 -2.461,2.65 -3.294,4.316c-0.833,1.666 -1.249,3.483 -1.249,5.451l0,20.67l-9.426,0l0,-26.575c-0.151,-2.044 -0.89,-3.805 -2.215,-5.281c-1.325,-1.476 -3.426,-2.29 -6.303,-2.442c-1.969,0 -3.842,0.341 -5.622,1.022c-1.779,0.681 -3.35,1.628 -4.713,2.839c-1.363,1.211 -2.461,2.65 -3.294,4.316c-0.833,1.666 -1.249,3.483 -1.249,5.451l0,20.67l-9.426,0l0,-42.589Z" style="fill-rule:nonzero;"/><path d="M360.915,96.223l-9.426,0l0,-6.814l0.341,-5.111c-1.514,3.634 -3.956,6.53 -7.325,8.688c-3.369,2.158 -7.098,3.237 -11.187,3.237c-4.467,0 -7.988,-1.174 -10.562,-3.521c-2.574,-2.347 -3.937,-5.414 -4.089,-9.199l0,-30.891l9.426,0l0,26.575c0.151,2.044 0.89,3.805 2.215,5.281c1.325,1.476 3.426,2.29 6.303,2.442c1.969,0 3.842,-0.341 5.622,-1.022c1.779,-0.681 3.35,-1.628 4.713,-2.839c1.363,-1.211 2.461,-2.65 3.294,-4.316c0.833,-1.666 1.249,-3.483 1.249,-5.451l0,-20.67l9.426,0l0,43.611Z" style="fill-rule:nonzero;"/><path d="M378.745,52.612l8.291,0l0,1.022c0.151,1.817 0.284,3.464 0.397,4.94c0.114,1.476 0.246,3.123 0.397,4.94c1.514,-3.634 3.956,-6.53 7.325,-8.688c3.369,-2.158 7.098,-3.237 11.187,-3.237c4.467,0 7.988,1.174 10.562,3.521c2.574,2.347 3.937,5.414 4.089,9.199l0,30.891l-9.426,0l0,-26.575c-0.151,-2.044 -0.89,-3.805 -2.215,-5.281c-1.325,-1.476 -3.426,-2.29 -6.303,-2.442c-1.969,0 -3.842,0.341 -5.622,1.022c-1.779,0.681 -3.35,1.628 -4.713,2.839c-1.363,1.211 -2.461,2.65 -3.294,4.316c-0.833,1.666 -1.249,3.483 -1.249,5.451l0,20.67l-9.426,0l0,-42.589Z" style="fill-rule:nonzero;"/><path d="M431.215,36.144c0,-1.741 0.606,-3.18 1.817,-4.316c1.211,-1.136 2.574,-1.704 4.089,-1.704c1.439,0 2.764,0.568 3.975,1.704c1.211,1.136 1.817,2.574 1.817,4.316c0,1.741 -0.606,3.161 -1.817,4.259c-1.211,1.098 -2.536,1.647 -3.975,1.647c-1.514,0 -2.877,-0.549 -4.089,-1.647c-1.211,-1.098 -1.817,-2.517 -1.817,-4.259Zm10.448,59.057l-9.426,0l0,-42.589l9.426,0l0,42.589Z" style="fill-rule:nonzero;"/><path d="M460.629,24.901l9.426,0l0,26.689l11.13,0l0,9.199l-11.13,0l0,34.412l-9.426,0l0,-34.412l-9.54,0l0,-9.199l9.54,0l0,-26.689Z" style="fill-rule:nonzero;"/><path d="M501.969,123.594l-9.426,0c2.423,-4.77 4.808,-9.502 7.155,-14.196c2.347,-4.694 4.732,-9.426 7.155,-14.196l-21.465,-42.589l9.426,0c2.801,5.527 5.811,11.149 9.029,16.865c3.218,5.716 5.811,11.49 7.78,17.319c0.984,-2.877 2.139,-5.773 3.464,-8.688c1.325,-2.915 2.745,-5.792 4.259,-8.631c1.514,-2.839 3.047,-5.679 4.6,-8.518c1.552,-2.839 3.01,-5.622 4.372,-8.347l9.426,0c-5.981,11.887 -11.944,23.717 -17.887,35.491c-5.944,11.773 -11.906,23.604 -17.887,35.491Z" style="fill-rule:nonzero;"/></g></svg>