<?xml version="1.0" encoding="UTF-8" standalone="no"?><!DOCTYPE svg PUBLIC "-//W3C//DTD SVG 1.1//EN" "http://www.w3.org/Graphics/SVG/1.1/DTD/svg11.dtd"><svg width="100%" height="100%" viewBox="0 0 211 70" version="1.1" xmlns="http://www.w3.org/2000/svg" xmlns:xlink="http://www.w3.org/1999/xlink" xml:space="preserve" xmlns:serif="http://www.serif.com/" style="fill-rule:evenodd;clip-rule:evenodd;stroke-linejoin:round;stroke-miterlimit:2;"><g><path d="M10.117,63.911l0,-5.251c3.057,-0.177 5.572,-1.152 7.544,-2.924c1.972,-1.772 2.958,-4.298 2.958,-7.577l0,-40.344l5.517,0l0,40.543c0,2.481 -0.41,4.675 -1.23,6.58c-0.82,1.905 -1.939,3.512 -3.356,4.819c-1.418,1.307 -3.113,2.315 -5.085,3.024c-1.972,0.709 -4.088,1.086 -6.347,1.13Z" style="fill-rule:nonzero;"/><path d="M53.518,54.872c-2.393,0 -4.608,-0.332 -6.646,-0.997c-2.038,-0.665 -3.811,-1.651 -5.317,-2.958c-1.507,-1.307 -2.681,-2.936 -3.523,-4.885c-0.842,-1.95 -1.263,-4.187 -1.263,-6.713l0,-31.504l5.517,0l0,31.305c0,1.684 0.277,3.179 0.831,4.486c0.554,1.307 1.329,2.404 2.326,3.29c0.997,0.886 2.182,1.562 3.556,2.027c1.374,0.465 2.88,0.698 4.52,0.698c1.639,0 3.146,-0.233 4.52,-0.698c1.374,-0.465 2.559,-1.141 3.556,-2.027c0.997,-0.886 1.783,-1.983 2.359,-3.29c0.576,-1.307 0.864,-2.803 0.864,-4.486l0,-31.305l5.517,0l0,31.504c0,2.526 -0.432,4.763 -1.296,6.713c-0.864,1.95 -2.049,3.578 -3.556,4.885c-1.507,1.307 -3.279,2.293 -5.317,2.958c-2.038,0.665 -4.254,0.997 -6.646,0.997Z" style="fill-rule:nonzero;"/><path d="M81.699,5.689c4.076,5.273 8.131,10.535 12.163,15.785c4.032,5.251 8.086,10.512 12.163,15.785c4.076,-5.273 8.131,-10.535 12.163,-15.785c4.032,-5.251 8.086,-10.512 12.163,-15.785l0,48.652l-5.517,0l0,-31.238c0.044,-0.354 0.078,-0.709 0.1,-1.063c0.022,-0.354 0.055,-0.709 0.1,-1.063c-2.924,4.342 -6.026,8.563 -9.305,12.661c-3.279,4.099 -6.514,8.23 -9.704,12.396c-2.969,-3.899 -5.937,-7.776 -8.906,-11.631c-2.969,-3.855 -5.937,-7.732 -8.906,-11.631l-1.196,-1.795c0.044,0.354 0.078,0.709 0.1,1.063c0.022,0.354 0.055,0.709 0.1,1.063l0,31.238l-5.517,0l0,-48.652Z" style="fill-rule:nonzero;"/><path d="M146.701,28.286l5.782,0c1.95,0 3.556,-0.255 4.819,-0.764c1.263,-0.51 2.271,-1.141 3.024,-1.894c0.753,-0.753 1.285,-1.595 1.595,-2.526c0.31,-0.931 0.465,-1.817 0.465,-2.659c0,-0.975 -0.255,-1.916 -0.764,-2.825c-0.51,-0.908 -1.196,-1.706 -2.06,-2.393c-0.864,-0.687 -1.905,-1.23 -3.124,-1.628c-1.219,-0.399 -2.515,-0.598 -3.888,-0.598l-5.849,0l0,15.287Zm-5.517,26.054l0,-46.525l10.967,0c1.507,0 3.179,0.233 5.018,0.698c1.839,0.465 3.556,1.207 5.151,2.227c1.595,1.019 2.924,2.326 3.988,3.921c1.063,1.595 1.595,3.523 1.595,5.782c0,4.032 -1.196,7.234 -3.589,9.604c-2.393,2.371 -5.849,3.556 -10.368,3.556l-7.245,0l0,20.737l-5.517,0Z" style="fill-rule:nonzero;"/><path d="M179.202,28.286l5.782,0c1.95,0 3.556,-0.255 4.819,-0.764c1.263,-0.51 2.271,-1.141 3.024,-1.894c0.753,-0.753 1.285,-1.595 1.595,-2.526c0.31,-0.931 0.465,-1.817 0.465,-2.659c0,-0.975 -0.255,-1.916 -0.764,-2.825c-0.51,-0.908 -1.196,-1.706 -2.06,-2.393c-0.864,-0.687 -1.905,-1.23 -3.124,-1.628c-1.219,-0.399 -2.515,-0.598 -3.888,-0.598l-5.849,0l0,15.287Zm-5.517,26.054l0,-46.525l10.967,0c1.507,0 3.179,0.233 5.018,0.698c1.839,0.465 3.556,1.207 5.151,2.227c1.595,1.019 2.924,2.326 3.988,3.921c1.063,1.595 1.595,3.523 1.595,5.782c0,3.323 -0.831,6.104 -2.492,8.341c-1.662,2.238 -4.088,3.711 -7.278,4.42l9.97,21.136l-5.982,0l-9.77,-20.737l-5.649,0l0,20.737l-5.517,0Z" style="fill:#00bbc4;fill-rule:nonzero;"/></g></svg>