<?xml version="1.0" encoding="UTF-8" standalone="no"?><!DOCTYPE svg PUBLIC "-//W3C//DTD SVG 1.1//EN" "http://www.w3.org/Graphics/SVG/1.1/DTD/svg11.dtd"><svg width="100%" height="100%" viewBox="0 0 320 52" version="1.1" xmlns="http://www.w3.org/2000/svg" xmlns:xlink="http://www.w3.org/1999/xlink" xml:space="preserve" xmlns:serif="http://www.serif.com/" style="fill-rule:evenodd;clip-rule:evenodd;stroke-linejoin:round;stroke-miterlimit:2;"><rect id="Artboard1" x="0" y="0" width="319.505" height="51.031" style="fill:none;"/><g><path d="M9.557,42.941l0,-2.972l-2.972,0l0,-2.972l-2.972,0l0,-29.719l2.972,0l0,-2.972l2.972,0l0,-2.972l17.831,0l0,2.972l2.972,0l0,2.972l2.972,0l0,5.944l-5.944,0l0,-2.972l-2.972,0l0,-2.972l-11.888,0l0,2.972l-2.972,0l0,23.775l2.972,0l0,2.972l11.888,0l0,-2.972l2.972,0l0,-2.972l5.944,0l0,5.944l-2.972,0l0,2.972l-2.972,0l0,2.972l-17.831,0Z" style="fill:#6d0076;fill-rule:nonzero;"/><path d="M60.079,36.997l0,-2.972l2.972,0l0,-14.86l-2.972,0l0,-2.972l-11.888,0l0,2.972l-2.972,0l0,14.86l2.972,0l0,2.972l11.888,0Zm-14.86,5.944l0,-2.972l-2.972,0l0,-2.972l-2.972,0l0,-20.803l2.972,0l0,-2.972l2.972,0l0,-2.972l17.831,0l0,2.972l2.972,0l0,2.972l2.972,0l0,20.803l-2.972,0l0,2.972l-2.972,0l0,2.972l-17.831,0Z" style="fill:#222;fill-rule:nonzero;"/><path d="M74.939,42.941l0,-32.691l5.944,0l0,2.972l2.972,0l0,-2.972l5.944,0l0,2.972l2.972,0l0,-2.972l5.944,0l0,2.972l2.972,0l0,2.972l2.972,0l0,26.747l-5.944,0l0,-23.775l-2.972,0l0,-2.972l-2.972,0l0,26.747l-5.944,0l0,-26.747l-2.972,0l0,2.972l-2.972,0l0,23.775l-5.944,0Z" style="fill:#222;fill-rule:nonzero;"/><path d="M110.602,42.941l0,-32.691l5.944,0l0,2.972l2.972,0l0,-2.972l5.944,0l0,2.972l2.972,0l0,-2.972l5.944,0l0,2.972l2.972,0l0,2.972l2.972,0l0,26.747l-5.944,0l0,-23.775l-2.972,0l0,-2.972l-2.972,0l0,26.747l-5.944,0l0,-26.747l-2.972,0l0,2.972l-2.972,0l0,23.775l-5.944,0Z" style="fill:#222;fill-rule:nonzero;"/><path d="M152.208,42.941l0,-2.972l-2.972,0l0,-2.972l-2.972,0l0,-26.747l5.944,0l0,23.775l2.972,0l0,2.972l11.888,0l0,-2.972l2.972,0l0,-23.775l5.944,0l0,32.691l-5.944,0l0,-2.972l-2.972,0l0,2.972l-14.86,0Z" style="fill:#222;fill-rule:nonzero;"/><path d="M181.927,42.941l0,-32.691l5.944,0l0,2.972l2.972,0l0,-2.972l14.86,0l0,2.972l2.972,0l0,2.972l2.972,0l0,26.747l-5.944,0l0,-23.775l-2.972,0l0,-2.972l-11.888,0l0,2.972l-2.972,0l0,23.775l-5.944,0Z" style="fill:#222;fill-rule:nonzero;"/><path d="M223.534,42.941l0,-5.944l5.944,0l0,-20.803l-5.944,0l0,-5.944l11.888,0l0,26.747l5.944,0l0,5.944l-17.831,0Zm5.944,-35.663l0,-5.944l5.944,0l0,5.944l-5.944,0Z" style="fill:#222;fill-rule:nonzero;"/><path d="M265.141,42.941l0,-2.972l-2.972,0l0,-2.972l-2.972,0l0,-20.803l-5.944,0l0,-5.944l5.944,0l0,-8.916l5.944,0l0,8.916l8.916,0l0,5.944l-8.916,0l0,17.831l2.972,0l0,2.972l5.944,0l0,-2.972l2.972,0l0,-2.972l5.944,0l0,5.944l-2.972,0l0,2.972l-2.972,0l0,2.972l-11.888,0Z" style="fill:#222;fill-rule:nonzero;"/><path d="M291.888,48.885l0,-5.944l14.86,0l0,-2.972l2.972,0l0,-2.972l-14.86,0l0,-2.972l-2.972,0l0,-2.972l-2.972,0l0,-20.803l5.944,0l0,17.831l2.972,0l0,2.972l14.86,0l0,-20.803l5.944,0l0,26.747l-2.972,0l0,5.944l-2.972,0l0,2.972l-2.972,0l0,2.972l-17.831,0Z" style="fill:#222;fill-rule:nonzero;"/></g></svg>